<svg xmlns="http://www.w3.org/2000/svg" width="680" height="940" viewBox="0 0 680 940" font-family="'IBM Plex Sans', system-ui, sans-serif" role="img" aria-label="Grocery Operations Intelligence Platform architecture">
<title>Grocery Operations Intelligence Platform architecture</title>
<desc>A browser sends requests to an NGINX load balancer, which routes to a dashboard, three message-API replicas, an analytics service, and the Apache NiFi UI. The message API produces events to a Kafka cluster of three brokers coordinated by two Zookeepers, with binary uploads going to MinIO. Apache NiFi shares the same Zookeeper ensemble for state management. An ingest worker consumes Kafka events into PostgreSQL. The analytics service reads Postgres and uses ChromaDB and Ollama for the what-if assistant, serving SVG charts and JSON reports back to the dashboard.</desc>
<style>
  .t{font-size:14px;font-weight:500}
  .ts{font-size:12px;font-weight:400}
  .lbl-gray{fill:#f1efe8;stroke:#5f5e5a}.tx-gray{fill:#2c2c2a}
  .lbl-blue{fill:#e6f1fb;stroke:#185fa5}.tx-blue{fill:#0c447c}.tx-blue2{fill:#185fa5}
  .lbl-teal{fill:#e1f5ee;stroke:#0f6e56}.tx-teal{fill:#085041}.tx-teal2{fill:#0f6e56}
  .lbl-purple{fill:#eeedfe;stroke:#534ab7}.tx-purple{fill:#3c3489}.tx-purple2{fill:#534ab7}
  .lbl-green{fill:#eaf3de;stroke:#3b6d11}.tx-green{fill:#27500a}.tx-green2{fill:#3b6d11}
  .lbl-amber{fill:#faeeda;stroke:#854f0b}.tx-amber{fill:#633806}.tx-amber2{fill:#854f0b}
  .lbl-coral{fill:#faece7;stroke:#993c1d}.tx-coral{fill:#712b13}.tx-coral2{fill:#993c1d}
  .lbl-red{fill:#fcebeb;stroke:#a32d2d}.tx-red{fill:#791f1f}
  .lbl-pink{fill:#fbeaf0;stroke:#993556}.tx-pink{fill:#72243e}.tx-pink2{fill:#993556}
  .arr{stroke:#73726c;stroke-width:1.5;fill:none}
  .arr-dash{stroke:#993556;stroke-width:1.3;fill:none;stroke-dasharray:5 4}
  .albl{fill:#5f5e5a}.albl-pink{fill:#993556}
</style>
<defs>
<marker id="arrow" viewBox="0 0 10 10" refX="8" refY="5" markerWidth="6" markerHeight="6" orient="auto-start-reverse"><path d="M2 1L8 5L2 9" fill="none" stroke="#73726c" stroke-width="1.5" stroke-linecap="round" stroke-linejoin="round"/></marker>
<marker id="arrowpink" viewBox="0 0 10 10" refX="8" refY="5" markerWidth="6" markerHeight="6" orient="auto-start-reverse"><path d="M2 1L8 5L2 9" fill="none" stroke="#993556" stroke-width="1.5" stroke-linecap="round" stroke-linejoin="round"/></marker>
</defs>

<rect x="270" y="24" width="140" height="44" rx="8" stroke-width="0.5" class="lbl-gray"/>
<text class="t tx-gray" x="340" y="46" text-anchor="middle" dominant-baseline="central">Browser</text>
<line x1="340" y1="68" x2="340" y2="96" class="arr" marker-end="url(#arrow)"/>

<rect x="240" y="96" width="200" height="56" rx="8" stroke-width="0.5" class="lbl-blue"/>
<text class="t tx-blue" x="340" y="114" text-anchor="middle" dominant-baseline="central">NGINX load balancer</text>
<text class="ts tx-blue2" x="340" y="134" text-anchor="middle" dominant-baseline="central">Single entry, port 8080</text>

<line x1="285" y1="152" x2="135" y2="210" class="arr" marker-end="url(#arrow)"/>
<line x1="325" y1="152" x2="300" y2="210" class="arr" marker-end="url(#arrow)"/>
<line x1="370" y1="152" x2="470" y2="210" class="arr" marker-end="url(#arrow)"/>
<line x1="410" y1="152" x2="600" y2="210" class="arr" marker-end="url(#arrow)"/>

<rect x="40" y="210" width="170" height="56" rx="8" stroke-width="0.5" class="lbl-teal"/>
<text class="t tx-teal" x="125" y="228" text-anchor="middle" dominant-baseline="central">Dashboard</text>
<text class="ts tx-teal2" x="125" y="248" text-anchor="middle" dominant-baseline="central">IBM UI · JSON/SVG</text>

<rect x="228" y="210" width="150" height="56" rx="8" stroke-width="0.5" class="lbl-purple"/>
<text class="t tx-purple" x="303" y="228" text-anchor="middle" dominant-baseline="central">Message API x3</text>
<text class="ts tx-purple2" x="303" y="248" text-anchor="middle" dominant-baseline="central">text·json·binary</text>

<rect x="396" y="210" width="150" height="56" rx="8" stroke-width="0.5" class="lbl-teal"/>
<text class="t tx-teal" x="471" y="228" text-anchor="middle" dominant-baseline="central">Analytics</text>
<text class="ts tx-teal2" x="471" y="248" text-anchor="middle" dominant-baseline="central">pandas·sklearn</text>

<rect x="560" y="210" width="96" height="56" rx="8" stroke-width="0.5" class="lbl-pink"/>
<text class="t tx-pink" x="608" y="228" text-anchor="middle" dominant-baseline="central">NiFi</text>
<text class="ts tx-pink2" x="608" y="248" text-anchor="middle" dominant-baseline="central">dataflow UI</text>

<path d="M303 266 L303 300" class="arr" marker-end="url(#arrow)"/>
<text class="ts albl" x="312" y="286" text-anchor="start">produce</text>

<path d="M228 238 L120 238 L120 470 L300 470" class="arr" marker-end="url(#arrow)"/>
<text class="ts albl" x="128" y="362" text-anchor="start">uploads</text>

<rect x="60" y="442" width="170" height="56" rx="8" stroke-width="0.5" class="lbl-amber"/>
<text class="t tx-amber" x="145" y="460" text-anchor="middle" dominant-baseline="central">MinIO</text>
<text class="ts tx-amber2" x="145" y="480" text-anchor="middle" dominant-baseline="central">binary object store</text>

<rect x="160" y="300" width="340" height="124" rx="14" stroke-width="0.5" class="lbl-coral"/>
<text class="t tx-coral" x="330" y="322" text-anchor="middle">Kafka cluster + Zookeeper</text>
<text class="ts tx-coral2" x="330" y="340" text-anchor="middle">3 brokers · RF=3 · 12 topics</text>
<rect x="184" y="358" width="148" height="48" rx="8" stroke-width="0.5" class="lbl-red"/>
<text class="ts tx-red" x="258" y="382" text-anchor="middle" dominant-baseline="central">Brokers 1·2·3</text>
<rect x="348" y="358" width="130" height="48" rx="8" stroke-width="0.5" class="lbl-red"/>
<text class="ts tx-red" x="413" y="382" text-anchor="middle" dominant-baseline="central">Zookeeper x2</text>

<path d="M600 266 L600 382 L478 382" class="arr-dash" marker-end="url(#arrowpink)"/>
<text class="ts albl-pink" x="512" y="300" text-anchor="middle">shared ZK</text>
<text class="ts albl-pink" x="512" y="316" text-anchor="middle">(state mgmt)</text>

<line x1="330" y1="424" x2="330" y2="454" class="arr" marker-end="url(#arrow)"/>
<text class="ts albl" x="339" y="442" text-anchor="start">consume</text>

<rect x="240" y="454" width="190" height="56" rx="8" stroke-width="0.5" class="lbl-purple"/>
<text class="t tx-purple" x="335" y="472" text-anchor="middle" dominant-baseline="central">Ingest worker</text>
<text class="ts tx-purple2" x="335" y="492" text-anchor="middle" dominant-baseline="central">Kafka consumer</text>

<line x1="335" y1="510" x2="335" y2="544" class="arr" marker-end="url(#arrow)"/>

<rect x="240" y="544" width="190" height="56" rx="8" stroke-width="0.5" class="lbl-green"/>
<text class="t tx-green" x="335" y="562" text-anchor="middle" dominant-baseline="central">PostgreSQL</text>
<text class="ts tx-green2" x="335" y="582" text-anchor="middle" dominant-baseline="central">operational data</text>

<path d="M471 266 L471 572 L430 572" class="arr" marker-end="url(#arrow)"/>
<text class="ts albl" x="479" y="430" text-anchor="start">reads</text>

<line x1="500" y1="700" x2="500" y2="266" class="arr" marker-end="url(#arrow)"/>
<text class="ts albl" x="509" y="690" text-anchor="start">charts · JSON</text>

<rect x="360" y="720" width="280" height="180" rx="14" stroke-width="0.5" class="lbl-coral"/>
<text class="t tx-coral" x="500" y="742" text-anchor="middle">What-if assistant</text>
<text class="ts tx-coral2" x="500" y="760" text-anchor="middle">retrieval-augmented</text>
<rect x="384" y="780" width="232" height="44" rx="8" stroke-width="0.5" class="lbl-amber"/>
<text class="ts tx-amber2" x="500" y="802" text-anchor="middle" dominant-baseline="central">ChromaDB · metric facts</text>
<rect x="384" y="836" width="232" height="44" rx="8" stroke-width="0.5" class="lbl-amber"/>
<text class="ts tx-amber2" x="500" y="858" text-anchor="middle" dominant-baseline="central">Ollama · llama3.2</text>

<path d="M440 720 L440 294 L396 294" class="arr" marker-end="url(#arrow)"/>
<text class="ts albl" x="449" y="540" text-anchor="start">facts + LLM</text>
</svg>
